<?xml version="1.0" encoding="UTF-8"?>
<svg width="219px" height="59px" viewBox="0 0 219 59" version="1.1" xmlns="http://www.w3.org/2000/svg" xmlns:xlink="http://www.w3.org/1999/xlink">
    <title>Logo</title>
    <defs>
        <path d="M0,0 L219,0 L219,59 L0,59 L0,0 Z" id="path-1"></path>
    </defs>
    <g id="Logo" stroke="none" fill="none" xlink:href="#path-1" stroke-width="1">
        <text id="AlphaSwarm" stroke="#9D02D7" fill="#EA5F94" fill-rule="nonzero" font-family="Arial-BoldMT, Arial" font-size="24" font-weight="bold">
            <tspan x="62" y="39">AlphaSwarm</tspan>
        </text>
        <g id="Group" fill-rule="evenodd" transform="translate(10, 9)" fill="#9D02D7">
            <path d="M40.1507911,16.8046561 L37.0946603,15.5314172 C36.9774683,15.4749154 36.8804178,15.3826249 36.8126653,15.2696173 C32.6140695,8.66234016 24.7543983,12.4387824 20.6862763,17.2566623 L20.6844451,17.2566623 C18.3003318,15.0831397 15.6451927,13.2429946 12.7923508,11.7848853 C11.9024345,11.3611019 10.9795481,11.0164338 10.0328328,10.7583948 C7.44179763,10.025744 5.2299174,8.28540713 3.86580349,5.90700433 C3.44465481,5.22895883 2.66458635,4.88429072 1.89733087,5.0349675 C1.13007539,5.18564427 0.527669879,5.80153058 0.379343976,6.59071527 C0.0387530162,8.5118241 -0.072938693,10.4687739 0.0460814174,12.4180894 C3.07111729,14.4917635 6.81547715,16.4562271 10.6558563,15.7499347 C11.03673,15.6802457 11.3992827,15.9382807 11.4725277,16.3262834 C11.5457726,16.7161586 11.3022322,17.094735 10.925007,17.1757388 C7.1583807,17.9046528 3.36612841,16.303702 0.273043095,14.3241708 C0.652084724,16.8291822 1.6628611,19.1892226 3.201005,21.1705218 C6.16010089,21.9145034 11.3091231,22.9635754 13.8674226,21.5773491 C14.2061815,21.3814692 14.6365141,21.5038951 14.8287479,21.8542166 C15.5007654,23.4664581 11.5730002,23.703764 10.2875611,23.7018755 C8.52784637,23.6642064 6.77731165,23.4607927 5.05416077,23.0916145 C7.54999702,25.3931922 10.386393,27.2727946 13.4572118,28.6574138 C10.0696232,31.5616986 6.31788027,33.9837374 2.30210394,35.8601656 C1.72165237,36.1068978 1.35722458,36.7077325 1.40121061,37.3518657 C1.44515758,37.9978873 1.88462727,38.5422122 2.49437681,38.7041797 C5.6805125,39.5385674 8.95243268,39.9736416 12.2396659,40 C23.7408806,40 31.2450697,34.0203418 33.1275625,26.6857981 C33.5633602,24.8889675 34.1896338,23.1467823 34.9952891,21.4912664 C35.0593775,21.3669561 35.1692449,21.2727851 35.2992537,21.2294665 L40.0947469,19.4759504 C40.6294546,19.2687719 40.9864993,18.7470365 40.9996656,18.159397 C41.0121299,17.5736461 40.6752024,17.0368349 40.1515069,16.8051945 L40.1507911,16.8046561 Z M27.3057757,28.0021506 C27.265493,28.2356996 25.0809653,34.4342409 14.9346064,35.2121349 C14.5592251,35.204601 14.2534089,34.8975981 14.2387989,34.5114678 C14.2241499,34.1253575 14.5043128,33.7938847 14.8778465,33.7561954 C24.0793651,32.9858554 25.8829487,27.7685012 25.9544358,27.5503212 C26.0826125,27.1773982 26.4781274,26.9758609 26.8443521,27.0982908 C27.2105768,27.2207167 27.4156627,27.6218826 27.3057757,28.0023515 L27.3057757,28.0021506 Z M30.4882785,16.3622691 C30.4992652,15.8160557 30.9332562,15.379093 31.4642528,15.379093 C31.9952493,15.379093 32.4292501,15.8160557 32.440227,16.3622691 C32.4292403,16.9084824 31.9952493,17.3454451 31.4642528,17.3454451 C30.9332562,17.3454451 30.4992555,16.9084824 30.4882785,16.3622691 Z" id="Shape" fill-rule="nonzero"></path>
            <path d="M20.5884385,15 C22.1559867,13.4213657 23.9869893,12.1290886 26,11.1863587 C24.4787948,9.41621123 22.6626725,7.92127462 20.6331589,6.7702127 C18.4701173,5.58019761 16.8524664,3.59437978 16.1251073,1.23108916 C15.8802335,0.52453754 15.2309372,0.037345365 14.4833549,0.00204158427 C13.7375932,-0.0332867901 13.0437941,0.392517266 12.7358567,1.07491952 C11.5597107,3.66879539 10.9679374,6.4914715 11.0013392,9.34155762 C11.4892267,9.49216989 11.9826943,9.67253255 12.4705817,9.87333569 L12.4705817,9.87147633 C15.4034866,11.189775 18.1381971,12.9152969 20.5887155,14.999648 L20.5884385,15 Z" id="Path" fill-rule="nonzero"></path>
        </g>
    </g>
</svg>